<svg width="142" height="40" viewBox="0 0 142 40" fill="none" xmlns="http://www.w3.org/2000/svg">
<path d="M9.74002 25.1C7.58001 25.08 5.56001 22.48 6.36001 20.5C6.94001 19.04 0.400015 23.58 1.42001 20.9C1.32001 21.18 1.34001 21.36 1.44001 20.82L1.42001 20.9C0.580014 23.46 8.94002 17.7 7.16001 20C6.78001 20.5 6.66001 21.1 6.74001 21.68C7.18001 23.86 11.98 24 10.34 18.78C9.22002 18.42 8.00001 17.74 6.76001 16.6C4.00001 14.06 0.280014 9.66 0.840015 17.52C1.46627e-05 9.5 4.28001 13.48 7.22001 16.12C8.28001 17.08 9.28001 17.7 10.2 18.04C10.38 17.28 11.7 17.12 11.36 16.76C9.00002 14.06 12.9 14.84 12.62 14.04C11.56 11.24 12.82 9.06 14.88 7.74C21.66 2.86 31.3 7.58 26.4 11.52C21.88 15.14 30.94 18.5 26.36 18.56C25.5 18.58 24.76 18.18 24.04 17.66C24.58 19.7 26.84 18.84 26.9 20.06C31.48 21.18 34 26.54 29.14 26.54C28.6 26.54 28.06 26.5 27.52 26.46C27.06 26.9 26.86 27.22 27.76 27.24C34.9 27.42 18.56 32.24 24.78 39.14C18.14 32.02 34.9 27.24 27.1 27.48C25.96 27.52 26.44 27 27.06 26.4C22.44 25.74 18.88 22.98 20.58 19.82C20.06 19.66 20.02 19.38 20.28 18.9C21.16 17.44 20.42 15.78 16.2 18.22C15.94 18.38 15.58 18.56 15.12 18.72C14.18 20.04 13.22 20.4 14.96 20.72C18.26 21.32 14 26.9 10.62 26.86C8.36001 26.84 8.10001 23.22 4.82001 24.24C3.24001 24.72 8.60001 19.44 2.94001 21.78C8.84001 19.16 3.66001 24.44 5.04001 24C7.58001 23.2 8.56001 26 10.54 26C12.5 26 16.9 21.7 13.38 21.02C11.94 20.74 12.7 20.12 13.6 19.1C13.04 19.16 12.42 19.18 11.76 19.1C11.66 19.46 11.7 19.86 12 20.32C13.08 22.02 12.76 25.14 9.74002 25.1ZM19.86 6.32C22.84 6.32 27.54 8.26 26.14 10.78C28.92 6.94 20.72 3.82 15.04 7.64C16.44 6.78 18.2 6.32 19.86 6.32ZM23.94 16.7C23.94 16.8 23.94 16.88 23.94 16.96C24.7 17.6 25.42 18.08 26.18 18.08C29.68 18.08 21.38 14.96 25.22 11.74C25.4 11.6 25.56 11.44 25.7 11.3C27.52 8.88 23.08 6.94 20.32 6.72C23.24 8.16 23.94 11.22 23.94 16.7ZM12.16 16.72C12.5 17.08 11.04 17.54 10.82 18.24C10.94 18.26 11.06 18.3 11.18 18.32C11.38 18.34 11.58 18.34 11.78 18.32C12.46 17.2 14.1 16.68 13.22 16.22C11.24 15.2 14.06 14.88 13.62 13.64C12.62 10.7 14.7 7.82 17.26 6.94C14.62 7.34 11.64 10.14 13.28 13.88C13.6 14.6 9.88002 14.28 12.16 16.72ZM14.36 12.98C14.44 10.2 15.58 7.74 18.1 7.62C21.3 7.46 23.06 10.38 23.64 13.4C23.54 12.56 23.4 11.8 23.2 11.16C22.52 9 21.18 7.26 18.86 7.1C15.88 6.9 13.16 10.3 14.1 13.36C14.68 15.26 12.08 15.1 13.98 16.06C15.12 16.64 13.42 17.22 12.4 18.16C13.36 17.82 14.12 16.96 15 16.1C15.16 11.26 15.86 8.42 17.7 8.02C15.8 8.08 14.5 10.4 14.36 12.98ZM14.3 8.18C14.1 8.34 13.92 8.5 13.78 8.64C13.94 8.48 14.12 8.34 14.3 8.18ZM17.7 14.22C19.62 13.48 21.12 14.46 22.46 15.62C22.8 13.62 22.54 11.44 21.68 9.94C20.92 9.12 19.96 8.6 18.84 8.62C16.34 8.66 16.38 11.52 16.26 15.02C16.68 14.7 17.16 14.44 17.7 14.22ZM23 16.1C23.16 16.26 23.34 16.4 23.5 16.56C23.8 14.96 23.5 13.06 22.74 11.5C23.18 12.9 23.28 14.56 23 16.1ZM20.7 18.56C20.4 18.96 20.42 19.24 20.8 19.44C20.88 19.34 20.94 19.24 21.02 19.14C21.64 18.34 22.08 17.3 22.34 16.2C21.16 15.18 19.88 14.36 18.12 14.92C17.38 15.16 16.76 15.54 16.2 15.96C16.14 16.48 16.02 16.96 15.86 17.38C16.02 17.28 16.18 17.2 16.34 17.1C20.44 14.74 21.78 17.14 20.7 18.56ZM21.72 19.32C21.64 19.42 21.58 19.54 21.5 19.64C21.72 19.68 21.96 19.72 22.24 19.74C22.6 18.92 23 18.12 23.26 17.4C23.3 17.3 23.32 17.2 23.36 17.1C23.2 16.96 23.04 16.82 22.88 16.68C22.64 17.64 22.26 18.54 21.72 19.32ZM14.86 17.06C14.1 17.68 13.36 18.24 12.46 18.42C13.14 18.4 13.78 18.26 14.4 18.04C14.58 17.74 14.74 17.4 14.86 17.06ZM25.18 19.84C25.42 19.84 25.68 19.86 25.9 19.88C25.84 19.16 24.96 19.42 24.38 18.96C24.12 18.76 23.6 18.38 23.66 17.5L23.64 17.58C23.48 18.32 23.18 19.06 22.88 19.78C23.5 19.82 24.28 19.84 25.18 19.84ZM9.46002 24.3C12.28 24.32 12.86 21.88 11.96 20.54C11.58 19.96 11.46 19.48 11.5 19.06C11.34 19.04 11.16 19 10.98 18.96C12.7 23.48 8.20002 24.62 7.00001 22.56C7.44001 23.52 8.36001 24.28 9.46002 24.3ZM21.32 19.98C20.72 21.18 20.86 22.32 21.56 23.28C21.3 22.3 21.64 21.16 22.12 20.04C21.82 20.02 21.56 20 21.32 19.98ZM25.24 20.08C24.26 20.08 23.44 20.08 22.76 20.06C22.14 21.6 21.58 23.02 22.38 24.1C23.52 25.02 25.3 25.66 27.56 25.88C28.06 25.3 28.34 24.74 27.2 24.56C24.64 24.14 23.4 25.56 25.24 21.88C25.66 21.04 25.86 20.48 25.9 20.12C25.68 20.1 25.46 20.08 25.24 20.08ZM28.98 25.96C32.98 26.04 31.08 21.3 26.88 20.28C26.82 20.6 26.66 21 26.36 21.58C24.24 25.58 25.74 23.44 28.26 24.18C29.5 24.54 28.84 25.26 28.1 25.92C28.4 25.94 28.68 25.96 28.98 25.96ZM34.2895 26.84C31.1095 26.86 29.8895 24.7 30.4695 22.78C28.8895 23.78 27.1695 24.5 25.8495 24.04C27.2295 24.32 28.9695 23.5 30.6095 22.38C30.8495 21.28 25.9095 24.66 25.7895 22.98C25.7895 22.96 25.7895 22.96 25.7895 22.94C25.7895 22.92 25.7895 22.88 25.7895 22.92C25.7895 22.96 25.7895 22.98 25.7895 22.82V22.92V22.94V22.98C25.9495 24.22 31.1895 21.16 31.3895 21.82C34.1495 19.78 36.3695 17.28 35.5695 18.84C34.4695 20.92 31.2695 24.54 33.8295 24.54C34.6295 24.54 35.5695 24.22 36.4495 23.68C36.4095 23.56 36.3695 23.46 36.3095 23.34C35.0695 20.62 38.8095 19.02 37.5695 18.22C36.9295 17.82 36.9895 17.24 37.2295 16.56C37.1095 16.38 36.9895 16.18 36.8895 15.98C36.6695 15.92 36.4295 15.9 36.1695 15.86C36.7495 17.66 38.0095 18.74 35.7295 20.52C37.6295 18.68 36.7895 18.12 35.9295 15.84C35.5895 15.8 35.2295 15.8 34.8695 15.8C28.1295 15.9 36.7495 12.26 34.3895 8.92C32.3895 6.06 39.4895 1.62 41.6295 5.14C44.6095 5.64 44.4295 8.9 45.0295 12.22C45.5095 14.86 48.1695 12.7 47.2095 14.46L47.1695 14.52C50.8295 14.62 43.9695 19.46 46.2695 20.56C47.5095 21.16 46.7895 23.38 47.4495 24.86C47.6895 24.82 47.9495 24.76 48.2095 24.7C49.4895 24.4 50.2095 24.04 50.5495 23.62C48.9695 21.5 45.9695 18.86 47.2095 18.96C47.8895 19.02 48.4095 19.02 48.8095 19C48.6695 18.72 48.5495 18.42 48.4295 18.1C47.6495 15.96 50.5095 14.86 50.9895 12.22C51.2895 10.54 51.3695 8.88 51.7695 7.58C53.6695 -1.43051e-06 64.3095 5.48 61.9095 8.92C59.5495 12.26 67.9695 15.62 61.2295 16.2C60.6495 16.26 60.1495 16.46 59.7295 16.78C58.7695 19.82 58.2495 23.86 62.6095 24.06C62.2095 24.06 61.8495 24.04 61.5095 23.98C60.4895 23.8 59.7095 23.36 59.1295 22.78C59.3695 23.3 59.4895 23.72 59.4895 24.06C60.2295 24.3 61.0695 24.44 61.9895 24.46C66.6295 24.52 64.1495 26.54 62.7495 29.54C65.9295 31 71.8495 33.84 67.7495 38.34C71.2895 34.02 66.2495 31.38 62.5895 29.88C61.6095 32.24 61.4295 35.12 65.6295 38.14C61.2895 35.44 61.4295 32.3 62.2295 29.74C59.5295 28.66 57.8495 28.22 61.6295 28.18C64.0695 28.16 51.6895 26.5 54.2695 25.44C55.6495 24.86 57.4295 24.76 58.2495 24.04C55.0295 22.74 54.0495 19.66 56.8695 16.88C59.8095 13.98 59.0295 7.62 55.1695 7.38C52.5895 7.3 57.5295 12.62 53.8895 12.92C51.4095 13.12 53.0495 15.38 51.6295 16.62C50.4295 17.68 51.8495 19.1 50.0695 19.5C51.3095 21.28 53.0695 22.9 51.3295 24.2C52.4495 25.78 52.9295 27.14 50.7495 27.14C48.8495 27.14 47.8895 26.48 47.3695 25.58C42.1895 26.34 42.7095 21.18 45.9095 15.52L45.8095 15.54C38.1695 16.38 44.3495 7.08 40.9295 7.18C40.2895 7.22 39.7095 7.44 39.2095 7.78C37.9295 8.94 38.0895 11.36 38.6895 12.94C39.0895 14.02 38.6495 14.96 38.1695 15.76C41.0295 17.04 41.6295 20.2 38.1095 23.12C37.8695 23.36 37.6095 23.58 37.3295 23.78C38.2095 25.42 36.2295 26.82 34.2895 26.84ZM35.2095 15.18C35.3895 15.18 35.5495 15.18 35.7095 15.2C34.8695 12.08 35.4295 5.32 40.4695 5.08C40.8295 5.06 41.1495 5.08 41.4295 5.1C39.2495 2.06 33.1295 5.88 34.9095 9.14C36.7495 12.6 30.0895 15.16 35.2095 15.18ZM60.0695 15.78C60.0695 15.8 60.0495 15.82 60.0495 15.84C60.3695 15.7 60.7095 15.62 61.0895 15.58C66.1895 15.18 59.1495 12.8 60.9895 9.34C62.9495 5.78 55.8895 1.86 52.7495 5.84C53.3295 5.3 54.1695 5.02 55.4295 5.08C60.7295 5.34 61.1095 12.94 60.0695 15.78ZM40.2695 5.66C37.5495 5.86 35.8295 8.84 35.7295 12.92C35.9895 9.64 38.3895 6.3 41.2495 6.3C41.6495 6.3 41.9095 6.46 42.0695 6.72C42.0095 6.4 41.9295 6.1 41.8295 5.84C41.4295 5.68 40.9095 5.62 40.2695 5.66ZM49.3495 18.22C49.4295 18.44 49.5495 18.64 49.6695 18.84C50.6695 18.42 49.4295 17.24 50.7095 16.12C52.0895 14.92 51.4495 12.62 53.1895 12.52C56.8295 12.32 52.4095 6.3 54.6495 6.3C57.5095 6.3 59.9695 9.22 60.3695 12.92C60.2695 8.84 57.9495 5.96 55.2295 5.76C51.4495 5.48 52.8095 8.24 51.8895 12.42C51.3295 14.94 48.4295 15.96 49.3495 18.22ZM43.8495 12.62C43.2295 9.72 43.7495 6.8 41.9895 5.92C42.0695 6.22 42.1495 6.54 42.1895 6.94C43.0095 8.94 40.5695 15.04 46.3695 14.56C46.4095 13.76 44.3095 14.76 43.8495 12.62ZM36.0095 15.22C36.2295 15.24 36.4295 15.26 36.6295 15.3C35.7495 12.46 36.9895 8.5 39.5295 7.44C36.8095 8.46 35.3495 12.1 36.0095 15.22ZM58.0695 17.1C55.5495 19.78 56.1895 22.4 58.5695 23.66C58.7895 23.26 58.7895 22.68 58.4295 21.86C57.4095 19.98 57.8095 17.42 59.3895 16.22C59.4295 16.02 59.4895 15.84 59.5295 15.68C60.4095 12.54 59.3495 8.84 56.7295 7.72C59.6495 9.12 60.4295 14.58 58.0695 17.1ZM37.7695 13.24C37.4495 12.18 37.2295 11.1 37.4695 10.08C36.7895 11.74 36.6695 13.8 37.3295 15.46C37.4095 15.48 37.5095 15.5 37.5895 15.54C37.8295 14.84 38.0095 14.06 37.7695 13.24ZM45.6895 21.16C43.1295 19.54 49.0295 15.74 46.6495 15.52C43.6695 21.04 41.7295 25.62 47.0495 24.92C46.5095 23.48 46.6295 21.76 45.6895 21.16ZM38.4095 17.14C40.3295 19.04 39.8695 21.12 38.5295 22.68C41.5495 19.7 40.5895 17.22 37.8695 16.24C37.8495 16.3 37.8095 16.34 37.7895 16.38C37.9695 16.66 38.1695 16.9 38.4095 17.14ZM37.9095 18.2C39.6295 19.06 36.1095 20.98 37.0495 23.24C38.8095 21.84 39.8695 19.46 37.6495 17.1C37.5895 17.04 37.5495 16.98 37.4895 16.92C37.2495 17.44 37.2495 17.88 37.9095 18.2ZM59.1095 17.44C57.9095 19.1 58.1095 22.02 60.0895 23.36C58.5095 22.1 58.6895 19.46 59.1095 17.44ZM31.1095 22.4C29.8895 23.98 31.2895 26.3 33.8095 26.3C35.9095 26.3 36.6695 25.38 36.5695 24.28C35.5895 24.82 34.5295 25.14 33.6095 25.12C31.1295 25.06 32.1695 23.24 34.6695 19.82C36.0895 17.88 33.9495 20.38 31.1695 22.3L31.1095 22.4ZM48.2095 19.58C47.1695 19.52 49.1495 21.46 50.6895 23.36C51.0695 22.44 50.0295 21.2 49.1295 19.6C48.8695 19.6 48.5495 19.6 48.2095 19.58ZM48.1295 25.44C48.0495 25.46 47.9695 25.48 47.8895 25.5C48.3295 25.92 49.0295 26.18 50.1295 26.18C51.6295 26.18 51.6495 25.42 51.0495 24.4C50.4495 24.78 49.4895 25.12 48.1295 25.44ZM56.3295 25.56C54.1895 25.9 61.1095 27.46 62.8295 28.08C63.6495 26.06 64.3095 24.7 62.0295 24.7C61.0895 24.7 60.2095 24.6 59.4295 24.42C59.1695 25.1 58.1095 25.26 56.3295 25.56ZM62.7295 28.34C60.1095 28.3 60.7095 28.62 62.3495 29.36C62.4695 29.02 62.6095 28.66 62.7295 28.34ZM90.1217 8.9C90.0817 8.9 90.0217 8.92 89.9817 8.92C94.1817 11.68 96.9017 16.3 91.7017 18.42C91.3217 18.58 90.9817 18.72 90.6817 18.88C91.2817 21.08 91.5017 23.16 91.5017 24.56C91.5017 28.98 88.0017 23.24 83.6617 25.22C80.2417 26.78 78.5017 25.88 76.7417 24.94C76.0017 25.08 75.1617 25.16 74.1417 25.16C68.0017 25.16 68.6417 21.78 65.1217 19.08C60.4417 15.48 64.4017 11.22 70.9017 9.24C71.8217 7.66 72.7617 6.74 75.6617 6.74C75.4617 4.6 76.7817 3.8 79.4017 3.8C82.1617 3.8 84.3417 5.02 85.8217 7.04C87.2217 7.4 88.6817 8.06 89.9817 8.92C90.0217 8.92 90.0817 8.9 90.1217 8.9ZM79.5017 4.3C77.2817 4.3 76.1617 4.88 76.1817 6.74C78.1817 6.78 79.8017 7.1 81.2417 7.48C81.8617 7.02 82.6417 6.74 83.7017 6.74C84.2017 6.74 84.7217 6.8 85.2617 6.9C83.8417 5.28 81.9017 4.3 79.5017 4.3ZM78.9417 8.16C79.4617 8.16 79.9817 8.2 80.5017 8.26C80.6617 8.04 80.8617 7.82 81.0617 7.64C79.7417 7.28 78.2017 6.98 76.2017 6.96C76.2217 7.34 76.2817 7.76 76.3817 8.24C77.2217 8.16 78.0817 8.14 78.9417 8.16ZM75.6817 6.96C73.1017 7 72.3017 7.74 71.5617 9.06C72.9417 8.68 74.4417 8.42 75.9617 8.26C75.8217 7.78 75.7217 7.36 75.6817 6.96ZM83.6217 7.06C82.7817 7.06 82.1217 7.24 81.6017 7.58C83.4017 8.08 84.9417 8.68 86.6017 8.94C86.3017 8.34 85.9617 7.8 85.5817 7.3C84.9217 7.14 84.2617 7.06 83.6217 7.06ZM86.9217 8.98C87.7417 9.08 88.5817 9.1 89.5017 9C88.4417 8.32 87.2817 7.76 86.1017 7.42C86.4017 7.9 86.6817 8.42 86.9217 8.98ZM86.3817 11.3C86.9017 11.76 87.3617 12.28 87.8017 12.84C87.5817 11.48 87.2217 10.24 86.7017 9.12C84.7817 8.96 83.3017 8.28 81.3817 7.72C81.1617 7.88 80.9417 8.08 80.7617 8.3C83.0617 8.68 85.0617 9.72 86.3817 11.3ZM76.4017 8.32C76.4217 8.36 76.4217 8.38 76.4217 8.42C76.9817 8.3 77.5617 8.22 78.1417 8.18C77.5617 8.22 76.9817 8.26 76.4017 8.32ZM69.2417 13C69.5817 13 69.9217 13.02 70.2817 13.04C71.2617 10.76 73.4217 9.18 76.0417 8.5C76.0217 8.46 76.0217 8.42 76.0017 8.36C74.3617 8.56 72.8217 8.9 71.4017 9.36C70.9017 10.3 70.3617 11.52 69.2417 13ZM78.4617 9C77.8417 9 77.2417 9.12 76.6817 9.34C76.7417 9.56 76.8217 9.76 76.8817 10C77.8017 9.42 78.8617 9.08 80.0417 9.04C80.0817 8.94 80.1417 8.84 80.2017 8.72C79.7817 8.68 79.3417 8.64 78.8817 8.64C79.1417 8.64 79.4017 8.64 79.6417 8.64C79.4017 8.62 79.1417 8.62 78.9017 8.62C78.1017 8.62 77.3217 8.7 76.5417 8.88C76.5617 8.96 76.6017 9.06 76.6217 9.14C77.2417 9.02 77.8617 8.96 78.4617 8.96V9ZM86.8217 13.16C86.3217 11.78 85.2617 10.68 83.9217 9.9C82.9017 9.34 81.7617 8.96 80.4417 8.76C80.3817 8.86 80.3417 8.94 80.2817 9.04C82.1017 9.04 85.1417 10.3 86.8217 13.16ZM70.8817 13.08C72.0617 10.92 74.1817 9.7 76.3017 9.2C76.2617 9.12 76.2217 9.04 76.2017 8.96C73.7417 9.58 71.6217 11.04 70.8817 13.08ZM91.6217 17.62C95.6017 15.66 93.3217 11.48 89.5217 9C88.5817 9.16 87.7617 9.2 87.0017 9.14C87.4817 10.32 87.8017 11.62 87.9617 13.04C89.1217 14.62 89.9417 16.44 90.4817 18.22C90.8217 18.02 91.2017 17.82 91.6217 17.62ZM81.7417 9.44C84.3617 10.54 86.4617 12.5 86.4617 15.56C86.4617 18.62 84.3617 21.38 81.7417 22.48C84.7417 21.48 87.2417 19.26 87.2417 15.96C87.2417 12.66 84.7417 10.44 81.7417 9.44ZM76.0617 9.44C74.0417 10.12 72.1417 11.34 71.1417 13.1C71.4217 13.12 71.7017 13.14 71.9817 13.16C72.8017 11.46 74.3217 10.18 76.0617 9.44ZM73.2817 13.26C73.6617 13.28 74.0217 13.3 74.3617 13.3C74.8417 11.94 75.6417 10.86 76.6817 10.14C76.5817 9.9 76.4817 9.68 76.4017 9.46C74.9617 10.14 73.8417 11.5 73.2817 13.26ZM64.8617 15.2C65.1617 13.48 66.7617 13.02 68.7217 13C69.6617 11.68 70.2017 10.52 70.7217 9.58C64.6617 11.7 61.4417 15.82 66.0217 19.08C69.1017 21.28 68.0217 24.98 74.2217 24.98C75.1017 24.98 75.8617 24.92 76.5217 24.82C75.2017 24.14 73.8417 23.48 71.7217 23.86C74.0817 23.44 75.4617 24.1 76.7417 24.78C78.2217 24.52 79.1417 24 79.7217 23.36C79.4617 23.36 79.1817 23.34 78.9217 23.34C69.8217 23.58 65.0617 17.48 67.9217 14.02C68.1817 13.7 68.4217 13.4 68.6217 13.1C66.7817 13.12 65.2417 13.58 64.8617 15.2ZM74.7217 14.78C74.7217 17.48 76.6017 14.42 79.0017 12.82C79.2017 11.8 79.4017 10.74 79.7417 9.8C78.7417 9.78 77.8417 10.06 77.0817 10.56C77.9217 12.9 76.7617 13.5 74.9017 13.54C74.7817 13.94 74.7217 14.36 74.7217 14.78ZM75.7217 17.1C77.6617 17.44 78.3217 16.04 78.7417 14.14C76.2417 16.22 73.8617 20.04 73.8817 16.32C73.8817 15.3 74.0217 14.36 74.3017 13.52C73.9617 13.52 73.6017 13.48 73.2217 13.46C73.0017 14.22 72.8817 15.04 72.8817 15.92C72.8817 17.74 74.1617 19.04 77.6417 19.38C78.8417 19.5 80.0217 19.54 81.0017 19.6C81.3217 18.2 81.9617 17.18 84.9217 17.6C82.4617 17.26 81.8217 18.26 81.4017 19.64C83.6817 19.82 84.4817 20.2 80.6417 22.14C80.5617 22.34 80.4617 22.54 80.3417 22.72C82.9617 21.98 85.1617 19.3 85.1817 15.96C85.2017 12.52 83.3217 10 79.9417 9.8C79.6017 10.7 79.4017 11.72 79.2217 12.7C79.5417 12.5 79.8617 12.32 80.2017 12.2C84.3417 10.64 85.7217 18.14 76.7017 18.9C83.4217 18.26 84.0617 13.64 81.4417 13.06C80.6617 12.88 79.8017 13.32 78.9617 13.98C78.5017 16 77.8617 17.56 75.7217 17.1ZM76.9017 10.68C76.0017 11.32 75.3217 12.26 74.9817 13.28C76.6017 13.18 77.5617 12.6 76.9017 10.68ZM87.4617 13.08C87.7617 13.8 87.9417 14.56 88.0017 15.4C88.0017 14.84 87.9617 14.28 87.9217 13.74C87.7817 13.52 87.6217 13.3 87.4617 13.08ZM68.3217 14.12C65.7417 17.02 69.2417 22.24 76.9217 23.2C72.8417 22.58 69.6817 20.06 69.6817 15.94C69.6817 14.94 69.8617 14 70.2217 13.16C69.8617 13.14 69.5017 13.12 69.1617 13.1C68.9017 13.44 68.6417 13.78 68.3217 14.12ZM70.3617 15.96C70.3617 19.26 72.1617 20.18 74.5817 20.82C72.6017 20.06 71.3417 19.02 71.3417 15.96C71.3417 15 71.5417 14.12 71.9017 13.32C71.6217 13.3 71.3417 13.26 71.0417 13.24C70.6217 14.04 70.3617 14.94 70.3617 15.96ZM88.0217 15.96C88.0017 19.8 84.4417 22.88 79.9417 23.3L79.9217 23.32C87.8617 23.08 84.7617 21.6 89.9817 18.5C89.5417 16.96 88.9217 15.36 88.0217 13.9C88.0417 14.48 88.0417 15.06 88.0217 15.66C88.0217 15.76 88.0217 15.86 88.0217 15.96ZM80.4417 21.46C80.5217 21.4 80.6017 21.36 80.6817 21.3C80.7817 20.9 80.8417 20.52 80.9017 20.14C80.0617 20.18 78.8217 20.28 77.5217 20.14C75.4017 19.92 73.0817 19.56 71.9217 17.12C71.9417 21.98 78.5617 19.28 78.6817 22.22C79.2817 22.08 79.8817 21.82 80.4417 21.46ZM70.7417 18.66C71.6217 21.06 75.3417 22.98 78.5817 22.24C77.8617 20.62 72.6017 22.22 70.7417 18.66ZM90.8217 24.34C90.8217 23.08 90.6417 21.18 90.1417 19.14C85.3617 21.62 88.2017 23.4 79.8817 23.36C79.2817 24.02 78.3817 24.58 76.9617 24.9C78.5817 25.76 80.1017 26.56 83.3417 25.04C88.3617 22.68 90.8217 28.34 90.8217 24.34ZM81.2817 20.12C81.2017 20.42 81.1217 20.76 81.0217 21.08C82.3417 20.2 82.1817 20.08 81.2817 20.12ZM79.0417 22.92C79.4217 22.92 79.7817 22.86 80.1417 22.78C80.2417 22.6 80.3217 22.44 80.4017 22.26C79.9817 22.46 79.5417 22.68 79.0417 22.92ZM79.7617 23.3C79.6217 23.32 79.4617 23.32 79.3217 23.34C79.4617 23.32 79.6017 23.32 79.7417 23.32C79.7417 23.32 79.7617 23.32 79.7617 23.3ZM102.558 21C102.558 15.36 113.598 17.06 106.398 15.6C105.838 15.58 105.238 15.52 104.598 15.44C103.858 15.4 103.078 15.28 102.218 15.08C102.358 15.1 102.498 15.12 102.638 15.14C103.218 15.2 103.758 15.24 104.278 15.24C107.738 15.16 108.178 12.46 107.518 10.5C104.918 10.24 100.998 11.2 99.8983 10.26C99.6383 10.08 99.4783 9.64 99.4383 8.82C99.3383 8.86 99.2583 8.9 99.1783 8.96C98.1783 9.62 97.7983 10.24 98.5583 12.44C101.678 13.72 100.978 14.46 99.5983 14.9C99.9183 15.62 99.9783 16.1 98.7183 16.08C96.9183 16.04 96.5383 16.3 96.8783 16.74C97.3983 16.76 98.0383 16.76 98.7783 16.72C100.078 16.66 99.8983 17.38 99.3183 18.48C99.7783 18.78 100.218 19.08 100.578 19.4C101.378 20.1 99.7783 20.14 98.3783 20.22C98.1383 20.7 97.8983 21.2 97.7183 21.7C99.1983 23.1 96.8983 23.14 99.1383 26.18L99.1583 26.2L99.1383 26.18L99.1583 26.22L99.1383 26.18C97.1383 25.16 97.0383 23.54 97.4383 21.94C97.2183 21.72 96.8983 21.46 96.4383 21.16C94.7383 20.04 96.7583 20.04 98.1383 19.92C98.2783 19.58 98.4183 19.26 98.5183 18.96C97.4983 18.26 96.7183 17.64 96.2983 17.14C93.9383 16.84 93.6383 15.4 97.0983 14.68C97.8383 14.52 98.5383 14.44 99.0383 14.34C98.9583 14.16 98.8583 13.94 98.7583 13.72C98.6983 13.6 98.6583 13.48 98.6183 13.38C98.1183 13.16 97.3983 12.9 96.4583 12.58C94.3983 11.88 96.0783 9.58 99.4183 8.22C99.4583 6.74 100.218 0.919999 105.738 3.46C115.938 8.16 117.498 16.12 106.518 15.62C114.738 16.86 104.398 16.04 104.398 20.18C104.398 21.94 106.198 23.74 110.698 24.8C108.238 24.02 105.118 21.96 105.118 20.18C105.118 17.06 112.878 17.02 109.118 16.06C109.338 16.08 109.518 16.1 109.698 16.12C117.098 16.5 107.898 17.84 108.778 21.36C109.398 23.84 115.598 26.14 120.038 26.08C123.438 26.04 110.778 24.78 113.478 21.5C110.718 25.3 128.878 26.22 118.318 26.22C114.598 26.22 104.198 25.16 103.178 20.48C102.898 23.82 106.338 25.98 111.718 25.98C118.118 25.98 109.378 32.2 114.878 28.96C120.758 25.5 125.478 27.74 126.958 22.28C126.038 27.28 121.098 26.24 115.058 29.28C107.698 32.98 117.318 26.52 111.178 26.7C103.718 26.92 102.558 22.64 102.558 21ZM106.238 4.24C102.458 1.86 100.078 4.58 100.098 7.96C101.478 7.48 103.098 7.16 104.718 7.16C108.658 7.16 107.498 5.02 106.238 4.24ZM106.398 7.34C112.918 7.5 113.598 14.38 106.998 15.32C106.958 15.32 106.918 15.34 106.858 15.34C115.298 15.02 113.718 9.24 108.978 5.62C105.058 2.62 111.458 6.9 106.398 7.34ZM110.318 10.7C110.738 11.12 110.898 11.66 110.858 12.2C111.658 10.14 110.238 7.78 106.258 7.6C107.098 8.04 107.878 8.9 108.298 9.88C109.138 9.98 109.858 10.22 110.318 10.7ZM100.118 8.48C100.318 11 101.998 8.7 103.858 7.6C102.398 7.7 101.138 8.04 100.118 8.48ZM106.038 8.58C104.118 7.76 102.038 9.8 100.738 10.28C101.858 10.56 104.798 9.84 107.218 9.84C106.918 9.24 106.498 8.78 106.038 8.58ZM98.1783 12.28L98.2183 12.3C97.8383 11.04 97.8983 10.24 98.1783 9.7C97.0783 10.72 96.9783 11.82 98.1783 12.28ZM108.638 11.3C108.738 13.06 107.718 14.84 105.438 15.22C109.298 14.96 110.558 12.96 109.678 11.5C109.438 11.12 109.058 10.86 108.558 10.7C108.598 10.9 108.618 11.1 108.638 11.3ZM99.1983 14.02C99.2383 14.1 99.2783 14.2 99.3183 14.28C99.7983 14.14 99.8583 13.94 98.9983 13.54C99.0583 13.7 99.1183 13.86 99.1983 14.02ZM98.2183 15.24C95.1383 15.8 94.5583 16.42 96.0183 16.66C95.8383 16.08 96.4583 15.76 98.1983 15.74C99.1783 15.72 99.3983 15.5 99.2783 15C98.9383 15.1 98.5783 15.18 98.2183 15.24ZM105.518 20.44C105.518 22.04 109.278 25.02 114.638 25.5C110.898 24.56 108.058 22.88 107.758 20.88C107.338 18.02 114.058 16.78 110.118 16.2C113.158 16.76 105.518 17.72 105.518 20.44ZM97.7983 17.18C97.6583 17.18 97.5183 17.2 97.3983 17.2C97.7583 17.46 98.2383 17.78 98.7583 18.1C98.8583 17.5 98.6583 17.14 97.7983 17.18ZM98.9183 19.24C98.7983 19.44 98.6783 19.66 98.5583 19.88C99.1783 19.78 99.4983 19.62 98.9183 19.24ZM96.9583 21.1C97.1983 21.26 97.3783 21.42 97.5383 21.56C97.6783 21.1 97.8383 20.66 98.0183 20.24C96.8983 20.32 96.0783 20.48 96.9583 21.1ZM97.5983 22.1C97.1783 23.58 97.3183 25.08 99.1183 26.18C96.9783 23.58 98.5983 23.24 97.5983 22.1ZM132.556 16.86C129.256 16.78 128.536 17.58 128.536 19.12C128.536 20.72 129.676 21.08 132.056 19.82C134.716 18.42 134.496 21.3 137.176 21.02C139.656 20.76 141.456 19.46 140.556 18.5C140.796 18.62 140.936 18.82 140.936 19.14V19.18C140.936 19.28 140.916 19.38 140.896 19.48C140.296 24.72 136.696 24.22 130.776 27.52C125.976 30.16 128.536 27.54 129.216 25.38C129.056 25.28 128.916 25.18 128.756 25.06C127.116 23.78 124.796 25.5 122.456 24.54C121.216 24.02 120.196 23.92 119.376 23.96C118.036 25 116.736 25.98 116.416 23.58C116.376 23.38 116.356 23.1 116.336 22.76C116.336 22.68 116.336 22.56 116.336 22.46V22.54C116.336 22.42 116.336 22.3 116.336 22.16C116.336 19.94 117.416 17.12 120.176 18.52C123.816 20.36 121.596 15.88 123.956 15.76C124.636 15.72 125.016 15.5 125.856 15.36C125.256 15.36 124.676 15.32 124.196 15.24C123.156 15.08 122.356 14.84 121.196 15.2C120.316 15.48 120.016 15.38 119.996 15.06C119.956 15.1 119.936 15.12 119.896 15.16C117.656 17.28 116.856 11.94 116.856 10.42C116.856 6.46 122.356 8.82 125.256 6.22C126.376 5.22 127.016 5.08 127.576 5.32C128.576 4.12 129.056 3.4 130.956 5.14C134.576 8.44 139.056 7.08 137.976 11.98C138.716 7.06 133.476 8.84 130.376 5.7C128.976 4.28 128.496 4.6 127.836 5.46C128.856 6.12 129.776 7.9 133.256 7.66C129.516 8.14 128.676 6.32 127.516 5.86C126.756 6.8 125.656 8.06 123.076 8.44C118.596 9.1 121.056 9.78 121.116 11.72C121.636 8.42 128.536 7.22 134.016 8.52C127.656 7.42 124.316 9.54 124.316 11.88C124.316 13.16 125.176 14.1 127.276 14.14C127.436 14.14 127.856 14.18 128.396 14.26C126.956 13.72 125.936 12.74 125.936 11.64C125.936 9.48 128.396 8.42 131.736 8.42C134.176 8.42 137.976 9.46 137.976 11.94C137.976 11.96 137.976 11.94 137.976 11.98V11.94C137.916 10 134.756 8.8 131.996 8.82C128.976 8.84 126.656 9.8 126.656 11.62C126.656 12.54 127.656 13.3 129.076 13.78C128.056 13.32 127.676 12.68 127.676 11.94C127.676 10.32 130.096 9.46 132.276 9.46C135.256 9.46 137.976 10.84 137.976 11.98C137.976 14.86 131.956 10.54 130.136 12.82C131.456 10.6 135.096 12.6 136.496 12.02C137.836 11.48 135.656 10.36 132.316 10.32C130.916 10.3 128.296 10.62 128.296 12.04C128.296 12.7 128.616 13.52 130.696 14.18C131.456 14.3 132.256 14.36 133.056 14.34C134.696 14.3 135.456 14.6 135.436 15.58C135.416 16.62 134.356 16.94 132.556 16.86ZM117.416 10.88C117.416 12.14 117.736 16.64 119.776 14.56C119.976 14.34 120.176 14.18 120.376 14.04C120.676 13.42 121.076 12.7 121.076 12.14C120.996 9.62 117.936 8.86 122.736 8.1C125.116 7.72 126.356 6.7 127.196 5.76C126.636 5.68 125.936 5.96 124.816 6.94C122.516 8.96 117.416 7.1 117.416 10.88ZM121.576 12.1C121.576 12.68 121.136 13.28 120.816 13.78C121.836 13.3 122.776 13.68 124.116 14.2C123.396 13.76 122.896 13.1 122.896 12.1C122.896 10.18 124.796 9.12 127.076 8.4C122.816 9.14 121.576 10.66 121.576 12.1ZM125.316 15.9C127.256 15.3 130.756 16.04 133.596 15.98C130.336 16.28 127.016 15.4 125.576 16.32C124.516 17 126.876 18.92 123.896 19.24C122.176 19.42 122.136 21.92 125.836 21.86C126.496 21.84 127.156 21.9 127.776 22C126.456 21.38 125.736 20.48 125.736 19.42C125.736 17.18 128.596 15.98 131.496 16.18V16.2C128.596 16.22 126.556 17.46 126.436 18.84C126.996 17.34 129.176 16.18 132.836 16.28C134.356 16.32 134.796 16.1 134.796 15.58C134.796 15 134.396 14.66 132.836 14.68C130.196 14.72 127.136 13.86 126.556 12.08C126.596 12.96 127.636 13.84 129.016 14.36C130.596 14.62 132.696 15.1 133.336 15.72C132.196 15.12 129.416 14.86 127.076 14.88C126.676 14.88 126.236 14.86 125.796 14.78C126.496 14.98 127.276 15.16 128.176 15.26C128.696 15.26 129.176 15.26 129.576 15.24C129.296 15.26 128.976 15.28 128.636 15.3C128.976 15.32 129.336 15.34 129.716 15.34C129.196 15.36 128.696 15.34 128.236 15.32C128.036 15.32 127.836 15.34 127.616 15.34C125.576 15.5 125.096 15.8 124.096 15.92C122.156 16.16 124.016 20.76 120.456 19.14C117.876 17.96 116.956 20 116.956 22.24C116.956 24.48 118.016 23.36 119.956 23.36C120.956 22.6 121.956 22.02 122.596 23C123.396 24.24 125.416 22.72 127.416 22.74C129.856 22.78 130.076 23.92 129.716 25.14C132.936 26.64 135.216 22.08 138.456 22.18C135.256 22.3 132.896 27.2 129.576 25.58C128.876 27.42 127.316 29.14 130.456 27.32C136.456 23.82 139.996 24.6 140.856 19.66C140.236 21.86 135.696 22.88 132.716 22.88H132.696C128.576 22.88 127.336 22.36 123.996 22.4C120.296 22.44 121.616 19.14 123.516 18.9C126.756 18.48 123.756 16.38 125.316 15.9ZM124.236 15.12C124.816 15.2 126.096 15.24 127.356 15.26C123.436 14.84 122.436 13.3 120.576 14.6C120.716 14.72 121.116 14.72 121.896 14.56C122.436 14.46 123.596 15.06 124.236 15.12ZM132.896 22.42C136.336 22.44 140.436 21.26 140.896 19.48C140.916 19.38 140.916 19.28 140.936 19.18V19.16C140.896 19.92 139.256 21 136.936 21.44C134.596 21.88 134.196 19.76 132.076 20.96C129.596 22.36 127.276 21 127.276 19.2C127.276 18.58 127.516 18.04 128.036 17.62C127.036 18.1 126.396 18.74 126.396 19.52C126.396 21.28 128.956 22.4 132.896 22.42ZM140.936 19.2C140.936 19.24 140.916 19.3 140.916 19.34C140.936 19.28 140.936 19.2 140.936 19.2ZM128.916 24.64C129.056 24.74 129.196 24.84 129.336 24.92C129.516 23.96 129.136 23.2 127.316 23.18C125.056 23.16 123.256 24.72 122.336 23.28C121.836 22.5 121.036 22.8 120.196 23.36C120.796 23.4 121.476 23.54 122.216 23.92C124.636 25.14 126.836 23.06 128.916 24.64ZM116.556 24.08C116.996 25.56 118.036 24.88 119.156 23.98C117.656 24.14 116.896 24.76 116.556 24.08Z" fill="#FFFBF7"/>
</svg>
